<?xml version="1.0" encoding="UTF-8"?>
<svg version="1.1" xmlns="http://www.w3.org/2000/svg" width="512" height="512">
<path d="M0 0 C1.51703998 -0.00505467 3.03407396 -0.01229057 4.55109441 -0.02149814 C8.68925754 -0.04031637 12.82682457 -0.02824628 16.96497202 -0.01077521 C21.43946262 0.00265168 25.91386903 -0.0128572 30.38835144 -0.02459717 C39.14122045 -0.04293765 47.89386563 -0.03448588 56.64672758 -0.01650894 C63.76164641 -0.00246222 70.87650464 0.0014054 77.991436 -0.00195122 C79.51250271 -0.00266738 79.51250271 -0.00266738 81.06429803 -0.00339801 C83.12452132 -0.00442438 85.1847446 -0.00547974 87.24496786 -0.00656378 C105.44561368 -0.01512335 123.64615167 0.001521 141.84677124 0.03126526 C159.4968824 0.06010934 177.14683828 0.06718119 194.79696655 0.05177307 C214.03252239 0.03500383 233.26800457 0.03098343 252.50356233 0.04848343 C254.55543859 0.05032776 256.60731486 0.05216249 258.65919113 0.0539875 C260.17341337 0.05535564 260.17341337 0.05535564 261.71822596 0.05675141 C268.8235222 0.06235165 275.92878241 0.05905448 283.03407669 0.05244255 C291.69443087 0.0447032 300.35463233 0.05148395 309.01495577 0.07661759 C313.43143536 0.08909762 317.84767736 0.09527726 322.26416588 0.08407593 C326.31064524 0.07400693 330.35665161 0.08254938 334.40307359 0.10565711 C335.86317131 0.11079992 337.3233117 0.10928439 338.7833906 0.10026246 C351.53475118 0.02805356 360.14515155 2.23944202 369.4883728 11.11256409 C375.92850171 18.46618646 377.84326173 26.13859683 377.81175232 35.68267822 C377.81303396 37.08922337 377.81303396 37.08922337 377.81434149 38.52418357 C377.81599416 41.6795581 377.81047835 44.83487997 377.80502319 47.99024963 C377.80474125 50.24682107 377.8048992 52.5033926 377.8054657 54.75996399 C377.80575339 60.89802833 377.79986114 67.03607325 377.79289174 73.17413306 C377.78665359 79.58433926 377.78605404 85.99454587 377.78486633 92.40475464 C377.78210827 103.16779481 377.77585595 113.93082647 377.76693726 124.69386292 C377.75776 135.78045109 377.7506807 146.86703733 377.74642944 157.95362854 C377.74603536 158.97847927 377.74603536 158.97847927 377.74563331 160.02403405 C377.74432829 163.45157445 377.74306458 166.87911486 377.74182141 170.30665529 C377.73145258 198.74717147 377.71376329 227.1876799 377.6914978 255.62818909 C378.92452637 255.60462341 378.92452637 255.60462341 380.1824646 255.58058167 C383.91457208 255.51813836 387.64656953 255.47916773 391.3789978 255.44068909 C393.31935913 255.40298401 393.31935913 255.40298401 395.29891968 255.36451721 C397.16967163 255.35001526 397.16967163 255.35001526 399.07821655 255.33522034 C400.22507935 255.31950989 401.37194214 255.30379944 402.55355835 255.28761292 C406.06487242 255.66871329 407.8867602 256.51749669 410.6914978 258.62818909 C413.48292003 262.94040525 414.06789985 266.30435624 414.05477905 271.38990784 C414.05413452 272.67445862 414.05348999 273.9590094 414.05282593 275.28248596 C414.04452759 275.94627258 414.03622925 276.6100592 414.02767944 277.29396057 C414.00426816 279.29260814 414.00885242 281.29151982 414.01376343 283.29029846 C413.92964026 298.60836238 411.42642065 313.56362705 400.4024353 325.11256409 C390.34051869 334.02586008 379.1883279 338.74288848 365.72506714 338.76241016 C365.03264783 338.76476239 364.34022853 338.76711462 363.62682682 338.76953813 C361.30136281 338.77620709 358.97595494 338.77577055 356.65048218 338.77536011 C354.96838769 338.77866005 353.286294 338.78238589 351.60420132 338.78650159 C346.97735116 338.79651497 342.35051397 338.80023732 337.72365451 338.8028909 C332.73502982 338.80679592 327.74641538 338.81637414 322.75779724 338.82510376 C310.70780567 338.84486282 298.65781326 338.85493379 286.60780954 338.86383155 C280.932163 338.86821547 275.25651739 338.87358202 269.58087158 338.87882042 C250.71173801 338.89583233 231.84260503 338.9103262 212.97346497 338.91756916 C208.07722981 338.91947903 203.18099466 338.92139937 198.28475952 338.9233551 C197.06783562 338.92383884 195.85091172 338.92432258 194.59711134 338.92482098 C174.88651007 338.93312017 155.1759695 338.95845541 135.46539474 338.99093578 C115.22552034 339.02401624 94.98567679 339.04201883 74.74577522 339.0452134 C63.38324341 339.0473776 52.02080013 339.0561132 40.65829468 339.08167458 C30.98083535 339.10339503 21.30348605 339.11142534 11.62600511 339.10170779 C6.69072442 339.097167 1.7556707 339.09903662 -3.17957878 339.11846924 C-7.70385601 339.13612934 -12.22774118 339.13508013 -16.75202274 339.11957195 C-18.3826504 339.11720019 -20.01330541 339.12149683 -21.64389133 339.1334006 C-37.13246675 339.23940433 -50.91515823 336.41136712 -62.59365845 325.49147034 C-74.26411515 312.99208399 -76.85108401 298.99585844 -76.69961548 282.30519104 C-76.68332995 280.16808604 -76.69966675 278.03282028 -76.71865845 275.89576721 C-76.71667886 274.51620581 -76.7128411 273.13664554 -76.7069397 271.75709534 C-76.70355591 270.53063293 -76.70017212 269.30417053 -76.69668579 268.0405426 C-76.25973818 264.19952579 -75.41736504 261.86291164 -73.3085022 258.62818909 C-69.44380698 255.74013117 -66.68985907 255.26731671 -61.91397095 255.33522034 C-60.71192017 255.34488831 -59.50986938 255.35455627 -58.27139282 255.36451721 C-57.02551392 255.38965393 -55.77963501 255.41479065 -54.4960022 255.44068909 C-53.23078735 255.45422424 -51.96557251 255.4677594 -50.66201782 255.48170471 C-47.54374577 255.51700591 -44.42634178 255.5663209 -41.3085022 255.62818909 C-41.31034578 254.48297098 -41.31218937 253.33775288 -41.31408882 252.15783119 C-41.35850449 224.28135887 -41.39136161 196.40489113 -41.41212654 168.52839088 C-41.4141662 165.84372072 -41.41624884 163.1590506 -41.41836548 160.47438049 C-41.4188901 159.80710589 -41.41941472 159.13983128 -41.41995524 158.45233624 C-41.42864848 147.65998135 -41.44441249 136.86764786 -41.46280779 126.07530566 C-41.48153693 114.994358 -41.49247567 103.91341905 -41.49667919 92.83245599 C-41.49928455 86.61140812 -41.50540032 80.3904087 -41.51996231 74.16937637 C-41.53356481 68.31062933 -41.53771941 62.45195058 -41.53471756 56.59318924 C-41.53526653 54.44623442 -41.53922801 52.29927725 -41.54691315 50.15233612 C-41.55691612 47.21302127 -41.55445158 44.27396171 -41.54901123 41.3346405 C-41.55483691 40.4921965 -41.5606626 39.6497525 -41.56666481 38.78177989 C-41.50938986 27.27253906 -38.98149166 17.61363207 -31.2460022 8.87818909 C-22.25051076 0.74547033 -11.60953765 -0.10279541 0 0 Z M-14.3085022 28.62818909 C-16.04753652 32.10625774 -15.44702771 36.14866337 -15.43980408 39.97761536 C-15.44191979 40.95922693 -15.44403551 41.9408385 -15.44621533 42.95219588 C-15.45223741 46.2624989 -15.45121361 49.57276404 -15.4503479 52.8830719 C-15.45337794 55.2479865 -15.45689896 57.61290052 -15.46087646 59.97781372 C-15.46877789 65.08136816 -15.47391505 70.18491556 -15.47716713 75.28847504 C-15.48266023 83.35549019 -15.49955449 91.42246297 -15.51850891 99.48945618 C-15.52486598 102.24856942 -15.53117438 105.00768277 -15.53748608 107.76679611 C-15.53986172 108.8011692 -15.53986172 108.8011692 -15.54228536 109.85643871 C-15.56022905 117.70955167 -15.57645159 125.56266764 -15.59146118 133.41578674 C-15.59283705 134.13382004 -15.59421292 134.85185333 -15.59563049 135.59164521 C-15.61755403 147.22397698 -15.62831488 158.85629788 -15.63583193 170.48864666 C-15.64390339 182.42849884 -15.66719554 194.36825769 -15.7037856 206.30805659 C-15.72383583 213.01298358 -15.7364871 219.71776292 -15.73095131 226.42272186 C-15.72631598 232.72973293 -15.74004963 239.03643344 -15.76796341 245.34338188 C-15.77489423 247.65971037 -15.77498155 249.97607084 -15.76776314 252.29239845 C-15.75890981 255.45224698 -15.77451255 258.61106367 -15.79624939 261.77082825 C-15.78358558 263.14914412 -15.78358558 263.14914412 -15.77066594 264.55530477 C-15.84267458 270.20789195 -16.63305466 273.27511042 -20.3085022 277.62818909 C-23.5465051 279.98131955 -26.67468802 279.93100567 -30.6053772 280.04225159 C-31.81065063 280.08092346 -33.01592407 280.11959534 -34.25772095 280.15943909 C-36.13910767 280.20584534 -36.13910767 280.20584534 -38.0585022 280.25318909 C-39.96309204 280.3111969 -39.96309204 280.3111969 -41.90615845 280.37037659 C-45.04012789 280.46463131 -48.17409168 280.55024075 -51.3085022 280.62818909 C-51.32895972 282.19584181 -51.34339229 283.7635737 -51.3553772 285.33131409 C-51.36407837 286.20433167 -51.37277954 287.07734924 -51.38174438 287.9768219 C-51.14834007 296.4260582 -48.6452162 302.29147509 -42.6210022 308.31568909 C-34.27508565 314.72256111 -24.19142718 314.05507182 -14.17715454 314.00914001 C-12.53412757 314.01259968 -10.89110293 314.01736632 -9.24808311 314.02332175 C-4.74790284 314.0358189 -0.24791398 314.02966721 4.25226688 314.02036309 C9.11123499 314.01356769 13.97017048 314.02405628 18.82913208 314.03230286 C28.34202706 314.04563712 37.85485099 314.0427638 47.36774874 314.03406493 C55.09963342 314.0272876 62.83149821 314.02637189 70.56338501 314.02963638 C71.66416087 314.03009608 72.76493673 314.03055578 73.89906943 314.03102941 C76.13533005 314.03198859 78.37159066 314.03296123 80.60785127 314.03394718 C101.57334925 314.04250018 122.53880787 314.03266835 143.5042994 314.01654609 C161.49054671 314.00314299 179.47673592 314.00547111 197.46298218 314.01930237 C218.35387058 314.03535976 239.2447245 314.04167621 260.13561821 314.03246558 C262.36361567 314.03150994 264.59161313 314.03056683 266.8196106 314.02963638 C267.91580518 314.02917356 269.01199977 314.02871073 270.14141238 314.02823388 C277.8632958 314.02564447 285.58515732 314.03001393 293.30703735 314.03707504 C302.71844648 314.045492 312.12978055 314.04320575 321.54118109 314.02723281 C326.34228235 314.01935277 331.14325851 314.016254 335.94435883 314.02618027 C340.34116304 314.03513312 344.73772641 314.03018455 349.13450885 314.01424761 C350.72321611 314.01090232 352.3119438 314.01258822 353.90063787 314.01987498 C365.25846317 314.0679645 374.42363585 313.61518243 383.03134155 305.45240784 C388.36210259 299.59484218 388.74213211 292.98295992 388.71102905 285.39381409 C388.70820923 284.49952698 388.7053894 283.60523987 388.70248413 282.68385315 C388.69885864 282.00548401 388.69523315 281.32711487 388.6914978 280.62818909 C387.51176392 280.61417053 387.51176392 280.61417053 386.30819702 280.59986877 C382.72700542 280.54601627 379.14709897 280.46239545 375.5664978 280.37818909 C374.3289978 280.3640094 373.0914978 280.34982971 371.8164978 280.33522034 C360.19521558 280.02282028 360.19521558 280.02282028 355.6914978 275.62818909 C353.98910356 272.79229472 353.44113853 270.70904805 353.43816471 267.41741276 C353.42974162 266.16129439 353.42974162 266.16129439 353.42114836 264.8797999 C353.42712 263.50748789 353.42712 263.50748789 353.43321228 262.10745239 C353.42953658 261.13159351 353.42586087 260.15573462 353.42207378 259.15030426 C353.41207197 255.87147678 353.41624894 252.59281817 353.42025757 249.3139801 C353.41587181 246.96685098 353.41057021 244.61972342 353.40441895 242.27259827 C353.39290669 237.21381236 353.38745863 232.1550684 353.38653755 227.09626961 C353.38476387 219.77665156 353.37010088 212.45710038 353.35104238 205.13751101 C353.32019955 193.25477448 353.29603442 181.37203603 353.27816772 169.48927307 C353.27709504 168.7780897 353.27602236 168.06690633 353.27491718 167.33417194 C353.26309662 159.39934245 353.25289122 151.46451218 353.24447632 143.52967834 C353.24140239 140.65227761 353.23831361 137.77487689 353.23519897 134.8974762 C353.23405097 133.83245515 353.23405097 133.83245515 353.23287977 132.74591852 C353.21980021 120.90885573 353.19516391 109.0718483 353.16145557 97.23482651 C353.13935355 89.28307803 353.13162536 81.33144631 353.13384831 73.3796674 C353.13218461 68.43656933 353.11815483 63.49356387 353.10063553 58.55049896 C353.09502396 56.25470845 353.09456182 53.95889882 353.09957314 51.66310692 C353.10568871 48.53382806 353.09352916 45.40513703 353.07676697 42.27590942 C353.08297878 41.36326547 353.0891906 40.45062151 353.09559065 39.51032168 C353.04946519 34.79846098 352.95853936 31.32195936 349.6914978 27.62818909 C345.88785691 25.73295621 342.78371255 25.37713122 338.56167603 25.37371349 C336.70168535 25.3649652 336.70168535 25.3649652 334.80411911 25.35604018 C333.43096619 25.35967324 332.05781378 25.36349761 330.68466187 25.36749268 C329.22372874 25.36447216 327.76279719 25.36058318 326.30186844 25.35590011 C322.28663392 25.34559868 318.27148847 25.34780736 314.25624657 25.3520807 C309.92626349 25.354544 305.59630209 25.34553875 301.2663269 25.33804321 C292.78362249 25.32528366 284.3009497 25.32350404 275.8182373 25.32584348 C268.92527921 25.32762521 262.03233073 25.32588012 255.13937378 25.32161903 C254.15901696 25.32102384 253.17866015 25.32042866 252.16859555 25.31981543 C250.17713388 25.31860371 248.1856722 25.31738957 246.19421053 25.31617305 C227.51222472 25.30529291 208.83025696 25.3074624 190.14827013 25.3135579 C173.04798062 25.31872885 155.94774805 25.30746776 138.84746981 25.28845968 C121.29705938 25.26910047 103.74667591 25.26082182 86.19625473 25.26458293 C76.33971025 25.26649772 66.48321425 25.26398037 56.62667847 25.24986839 C48.23687075 25.23797811 39.84714136 25.23652327 31.45733261 25.24865856 C27.17521405 25.25456352 22.89323892 25.25560221 18.61112976 25.24365616 C14.69301327 25.23285236 10.77516094 25.23583458 6.85705709 25.24991784 C5.43788083 25.25258001 4.01868422 25.25015089 2.59952784 25.24218198 C0.67348106 25.23211542 -1.25263986 25.2422653 -3.17868042 25.25345898 C-4.24943943 25.25340396 -5.32019844 25.25334895 -6.42340469 25.25329226 C-9.74039889 25.68431083 -11.62788144 26.65826425 -14.3085022 28.62818909 Z " fill="#000000" transform="translate(87.30850219726563,86.37181091308594)"/>
<path d="M0 0 C1.03458847 -0.00845947 2.06917694 -0.01691895 3.13511658 -0.02563477 C4.82158043 -0.01652573 4.82158043 -0.01652573 6.54211426 -0.00723267 C7.73450211 -0.01248962 8.92688995 -0.01774658 10.15541077 -0.02316284 C13.41786696 -0.03409155 16.67995702 -0.03154777 19.94240761 -0.02202559 C23.36070129 -0.01441673 26.77897096 -0.021478 30.19726562 -0.02618408 C35.93709691 -0.03163808 41.6768123 -0.02445943 47.41662598 -0.01016235 C54.04742391 0.00616358 60.67794509 0.00087481 67.30873632 -0.01564157 C73.00740597 -0.02926665 78.70599242 -0.03117113 84.4046731 -0.02332556 C87.80579316 -0.01865463 91.20678325 -0.01800813 94.6078949 -0.02793503 C98.39996104 -0.03554485 102.19149411 -0.02395082 105.98352051 -0.00723267 C107.10782974 -0.01330536 108.23213898 -0.01937805 109.39051819 -0.02563477 C110.42510666 -0.01717529 111.45969513 -0.00871582 112.52563477 0 C113.421576 0.00113108 114.31751724 0.00226215 115.24060822 0.00342751 C119.38878967 0.62432591 122.01577073 2.42782244 124.57531738 5.69345093 C125.76281738 8.38095093 125.76281738 8.38095093 125.76281738 14.38095093 C146.22281738 14.38095093 166.68281738 14.38095093 187.76281738 14.38095093 C187.76281738 12.40095093 187.76281738 10.42095093 187.76281738 8.38095093 C189.90453584 4.4034738 191.54434043 2.01558192 195.76281738 0.38095093 C198.16197872 0.12647533 198.16197872 0.12647533 200.87974548 0.12025452 C201.91295929 0.11316971 202.9461731 0.1060849 204.01069641 0.0987854 C205.70255318 0.10250153 205.70255318 0.10250153 207.42858887 0.10629272 C209.2169516 0.09862633 209.2169516 0.09862633 211.04144287 0.09080505 C214.30801394 0.07928729 217.57442764 0.07683539 220.84101367 0.07936835 C223.56964296 0.08043866 226.29824889 0.07555319 229.02687317 0.07076293 C235.46499543 0.05967075 241.90305934 0.0592287 248.34118652 0.0652771 C254.97933628 0.07131759 261.61727412 0.05900346 268.25538772 0.03770703 C273.95827314 0.02008485 279.66109113 0.01409063 285.36400276 0.01734477 C288.76850368 0.0191568 292.17285341 0.01652965 295.57732964 0.00263023 C299.37427044 -0.00968291 303.17071866 -0.00297274 306.96765137 0.00863647 C308.09353165 0.00099274 309.21941193 -0.006651 310.37940979 -0.01452637 C311.41544342 -0.00751205 312.45147705 -0.00049774 313.51890564 0.00672913 C314.4161457 0.00656138 315.31338575 0.00639364 316.2378149 0.00622082 C319.35381118 0.46865903 321.21979084 1.54674547 323.76281738 3.38095093 C326.64684705 7.75672007 327.41269255 11.18194957 326.76281738 16.38095093 C324.45684314 20.8220865 322.31611721 23.33460627 317.76281738 25.38095093 C314.3238544 25.80049967 310.91256935 25.74637659 307.45227051 25.70223999 C306.41593979 25.70118759 305.37960907 25.70013519 304.31187439 25.6990509 C302.06490727 25.69544692 299.81794325 25.6853032 297.57102966 25.66938019 C294.01534748 25.64639023 290.46028673 25.6452549 286.90454102 25.65066528 C276.79643297 25.66334588 266.68865497 25.64624382 256.58068848 25.59042358 C250.3955433 25.55780779 244.21116468 25.5589853 238.02598572 25.58144379 C235.66883208 25.58319425 233.31163154 25.57189031 230.9546051 25.54734039 C227.6599856 25.51383517 224.36803996 25.52314579 221.07336426 25.54208374 C220.09866684 25.52155441 219.12396942 25.50102509 218.11973572 25.47987366 C213.16006301 25.46450677 213.16006301 25.46450677 209.07833862 27.93540192 C207.81849877 29.69869829 206.79101747 31.47699294 205.76281738 33.38095093 C204.02453613 35.08798218 204.02453613 35.08798218 202.45031738 36.19345093 C201.93855957 36.57114624 201.42680176 36.94884155 200.89953613 37.33798218 C192.88643356 41.24931378 184.14727276 40.69123562 175.45812988 40.68173218 C173.96894208 40.68562705 172.47975538 40.68996333 170.99057007 40.69471741 C167.87897124 40.70214949 164.76748594 40.70191048 161.65588379 40.69662476 C157.69305098 40.69083619 153.73068648 40.70776069 149.76793098 40.73096943 C146.6947463 40.74579126 143.6216722 40.74656703 140.5484581 40.7434597 C139.08860218 40.74396875 137.62873937 40.7491271 136.16891861 40.75927162 C125.37114599 40.82510658 115.60331933 40.60115661 107.23547363 33.07626343 C105.76281738 31.38095093 105.76281738 31.38095093 104.80000305 28.8122406 C103.06176531 26.24376413 103.06176531 26.24376413 100.79955101 25.92181206 C98.08690759 25.75005446 95.41312058 25.74366616 92.69519043 25.78500366 C91.66075806 25.78094513 90.62632568 25.7768866 89.56054688 25.77270508 C87.31138286 25.76717867 85.0621679 25.77322196 82.81305504 25.78936577 C79.25287435 25.81469882 75.69385655 25.81001528 72.13362122 25.79747009 C64.57239332 25.77667821 57.01152184 25.79642405 49.45031738 25.81845093 C40.69966467 25.83954152 31.94938478 25.84412728 23.19874001 25.8179493 C19.69205865 25.81458547 16.18608639 25.83582563 12.67948914 25.85835266 C10.52586716 25.8558411 8.37224607 25.85228077 6.21862793 25.84750366 C4.75726158 25.86683205 4.75726158 25.86683205 3.26637268 25.8865509 C-2.5602969 25.84346105 -5.77442327 25.21274756 -10.23718262 21.38095093 C-12.6243204 18.43681433 -13.1991115 16.72993615 -13.61218262 12.94345093 C-13.19690955 8.9983568 -12.41673382 6.68785621 -10.23718262 3.38095093 C-6.7343503 0.85557688 -4.29618422 0.0054237 0 0 Z " fill="#000000" transform="translate(99.2371826171875,341.6190490722656)"/>
<path d="M0 0 C3.75212276 2.01502889 5.63644095 3.45466142 8 7 C9.09371404 11.37485617 9.42972667 14.91550991 7.390625 19.05859375 C2.13431759 26.39675325 -6.02187401 31.89747516 -12.9921875 37.52734375 C-17.15668497 40.95088518 -21.2138133 44.49238104 -25.27856445 48.03320312 C-31.46588065 53.41885629 -37.7236714 58.71857003 -44 64 C-36.41988096 71.6616257 -28.408277 78.74204096 -20.02734375 85.51171875 C-15.0898024 89.57005919 -10.28200294 93.7755756 -5.47265625 97.984375 C-3.46301989 99.74111452 -1.44172574 101.45458291 0.62890625 103.140625 C5.02224629 106.73296934 7.6230278 109.39375604 9 115 C8.76943428 119.6379182 7.51143619 122.39906248 4.5 125.9375 C1.05868652 128.77658362 -1.20767254 129.47992932 -5.73046875 129.3984375 C-13.13690778 128.09816765 -19.11706533 121.23361173 -24.41796875 116.33984375 C-26.94423005 114.05053888 -29.53527068 111.8914296 -32.1875 109.75 C-37.9563121 105.07807471 -43.55092947 100.22166718 -49.1484375 95.34765625 C-52.89420776 92.08646538 -56.66342747 88.85334961 -60.4375 85.625 C-61.58858005 84.63676345 -62.73962324 83.64848398 -63.890625 82.66015625 C-65.76629375 81.05105982 -67.65061448 79.45615814 -69.546875 77.87109375 C-74.52837112 73.66227495 -77.68542167 70.83120495 -78.4375 64.0625 C-78.5681167 59.82181124 -76.51451829 57.29401896 -74 54 C-72.05006527 52.17073633 -70.13624592 50.48246366 -68.0625 48.8125 C-66.89696291 47.85046938 -65.73160327 46.88822373 -64.56640625 45.92578125 C-63.97359863 45.44061035 -63.38079102 44.95543945 -62.77001953 44.45556641 C-59.98754728 42.16741475 -57.24516016 39.83265549 -54.5 37.5 C-53.41687684 36.583085 -52.33354297 35.66641886 -51.25 34.75 C-50.71375 34.29625 -50.1775 33.8425 -49.625 33.375 C-48 32 -46.375 30.625 -44.75 29.25 C-44.2135083 28.7960083 -43.6770166 28.3420166 -43.12426758 27.87426758 C-42.04352387 26.95986711 -40.96263249 26.04564114 -39.8815918 25.1315918 C-37.13238517 22.8066787 -34.38600298 20.47856219 -31.64453125 18.14453125 C-8.68504516 -1.38626682 -8.68504516 -1.38626682 0 0 Z " fill="#000000" transform="translate(198,168)"/>
<path d="M0 0 C4.36251568 2.6187079 8.22115162 5.74540512 12.0625 9.0625 C13.20956281 10.04305369 14.35670034 11.02351999 15.50390625 12.00390625 C16.08414551 12.50164551 16.66438477 12.99938477 17.26220703 13.51220703 C19.99753158 15.85402605 22.74917872 18.17642595 25.5 20.5 C26.58341986 21.4165644 27.66675301 22.33323131 28.75 23.25 C29.28625 23.70375 29.8225 24.1575 30.375 24.625 C32 26 33.625 27.375 35.25 28.75 C36.05473755 29.4308667 36.05473755 29.4308667 36.87573242 30.12548828 C37.95679731 31.04032299 39.03768985 31.95536141 40.1184082 32.87060547 C42.86005658 35.19201927 45.60480012 37.50959116 48.35546875 39.8203125 C53.50371864 44.14892558 58.63262299 48.49995711 63.6875 52.9375 C64.47511719 53.62714844 65.26273437 54.31679687 66.07421875 55.02734375 C69.03150071 58.05660823 69.90816865 60.17351785 70.375 64.375 C69.29305554 74.83379641 57.33857676 82.14181874 49.75 88.3125 C48.84507812 89.04339844 47.94015625 89.77429688 47.0078125 90.52734375 C43.49297885 93.41681089 40.05608461 96.38702991 36.625 99.375 C27.32266554 107.46567105 17.99771283 115.49301739 8.3125 123.125 C7.71171631 123.5988916 7.11093262 124.0727832 6.49194336 124.56103516 C2.12042128 127.97772644 -0.22109516 129.37654546 -5.90234375 129.2734375 C-9.45500147 128.810335 -11.38125709 127.37513892 -14 125 C-16.14369015 121.33498136 -16.97086093 118.80132449 -17.125 114.5625 C-14.11874662 105.04269762 -4.2341396 98.71400139 3.18017578 92.52148438 C5.44959296 90.62411278 7.70501989 88.71058587 9.96044922 86.79663086 C13.80639407 83.53384893 17.66161402 80.28228251 21.52734375 77.04296875 C22.10863037 76.55449463 22.68991699 76.06602051 23.28881836 75.56274414 C24.3908605 74.63680232 25.49442349 73.71266605 26.59985352 72.79077148 C29.91095834 70.0054576 32.98336704 67.0942669 36 64 C25.85845504 55.12196164 25.85845504 55.12196164 15.5 46.5 C9.12188605 41.32907006 2.93389717 35.9464859 -3.24023438 30.53515625 C-4.85430317 29.12710067 -6.47953021 27.73347424 -8.109375 26.34375 C-9.00140625 25.5703125 -9.8934375 24.796875 -10.8125 24 C-11.96685547 23.01 -11.96685547 23.01 -13.14453125 22 C-15.69632526 19.24943467 -16.9034649 16.69901784 -17.1171875 12.9375 C-16.52978938 8.23831501 -15.56806156 5.36983592 -12 2 C-8.03466534 -0.25059535 -4.50346218 -0.47404865 0 0 Z " fill="#000000" transform="translate(322,168)"/>
<path d="M0 0 C3.2186267 2.1213676 4.36898801 3.20652425 5.75 6.8125 C6.63522809 14.45052619 4.8641115 20.42020393 1.94555664 27.4050293 C1.54060974 28.41317688 1.13566284 29.42132446 0.71844482 30.46002197 C-0.61807059 33.7757638 -1.97877898 37.0809873 -3.33984375 40.38671875 C-4.28390549 42.71566491 -5.22638859 45.04525155 -6.16737366 47.3754425 C-8.39644508 52.88489899 -10.64064474 58.3880269 -12.89257485 63.8881653 C-15.66741044 70.66764552 -18.42090918 77.45573159 -21.17382812 84.24414062 C-24.00117339 91.2150606 -26.82984425 98.18537932 -29.67430115 105.14933777 C-30.54323564 107.27882568 -31.41213784 109.40832677 -32.28100586 111.5378418 C-32.69837981 112.55866694 -33.11575377 113.57949209 -33.54577541 114.63125134 C-35.66814809 119.84272379 -37.74363459 125.06740072 -39.75027466 130.32461548 C-40.153107 131.37575688 -40.55593935 132.42689829 -40.97097874 133.50989246 C-41.72951671 135.4980234 -42.48043567 137.48908504 -43.2221899 139.48353863 C-45.28241156 144.88182231 -47.22459933 149.62169262 -52.0625 153.125 C-56.52285204 154.52682493 -60.16962098 154.22803039 -64.5 152.5625 C-67.90481609 150.39579885 -69.70099055 148.97769889 -70.71391773 144.98288822 C-71.77737098 138.22934694 -70.15593 133.47771235 -67.57495117 127.25756836 C-67.17175659 126.24141953 -66.76856201 125.22527069 -66.35314941 124.17832947 C-65.01849 120.82848456 -63.65605516 117.4907109 -62.29296875 114.15234375 C-61.34974406 111.80198926 -60.408229 109.45094802 -59.46833801 107.09925842 C-57.23888993 101.53347316 -54.99174771 95.97515912 -52.73598605 90.42001301 C-49.95929456 83.57863052 -47.21187613 76.72560317 -44.46289062 69.87304688 C-39.5170648 57.56126922 -34.55902154 45.25469322 -29.53887558 32.97300339 C-28.65291515 30.80050437 -27.77058909 28.6265208 -26.8913002 26.45131302 C-25.55167622 23.13819582 -24.20136853 19.82961015 -22.84887695 16.52172852 C-22.44558513 15.51771216 -22.0422933 14.51369581 -21.62678051 13.47925472 C-17.33188005 3.04420625 -17.33188005 3.04420625 -12.4375 -0.5 C-7.99753003 -1.89541913 -4.33524036 -1.58403013 0 0 Z " fill="#000000" transform="translate(288.25,156.1875)"/>
</svg>
